# xmcd
#
# Track frame offsets:
#   150
#   16522
#   36612
#   55569
#
# Disc length: 934 seconds
#
# Revision: 0
# Processed by: cddbd v1.5.1PL2 Copyright (c) Steve Scherf et al.
# Submitted via: GXTranscoder 2.0.1939
#
DISCID=2503a404
DTITLE=Ronan Keating and Janette - We've got tonight
DYEAR=2002
DGENRE=Pop
TTITLE0=We've got tonight
TTITLE1=Sea of love
TTITLE2=All I have is my heart
TTITLE3=In the getto
EXTD=
EXTT0=
EXTT1=
EXTT2=
EXTT3=
PLAYORDER=
